<mxfile host="www.draw.io" modified="2019-12-23T21:20:42.059Z" agent="Mozilla/5.0 (Macintosh; Intel Mac OS X 10_15_2) AppleWebKit/537.36 (KHTML, like Gecko) Chrome/79.0.3945.88 Safari/537.36" etag="dIcNo8kK_VPjELwpIt9l" version="12.4.3" type="github" pages="1">
  <diagram id="yEd7I5hEEhK2EHyG8jq4" name="Page-1">
    <mxGraphModel dx="1026" dy="645" grid="1" gridSize="10" guides="1" tooltips="1" connect="1" arrows="1" fold="1" page="1" pageScale="1" pageWidth="827" pageHeight="1169" math="0" shadow="0">
      <root>
        <mxCell id="0"/>
        <mxCell id="1" parent="0"/>
        <mxCell id="vU4K2YzizICc16gCa0ZY-2" value="Web Gateway" style="rounded=0;whiteSpace=wrap;html=1;" parent="1" vertex="1">
          <mxGeometry x="18" y="30" width="790" height="30" as="geometry"/>
        </mxCell>
        <mxCell id="aOlIhon-sFU2XGYJ-QFs-1" value="Customer UI" style="whiteSpace=wrap;html=1;aspect=fixed;" vertex="1" parent="1">
          <mxGeometry x="78" y="111" width="80" height="80" as="geometry"/>
        </mxCell>
        <mxCell id="aOlIhon-sFU2XGYJ-QFs-2" value="Rider UI" style="whiteSpace=wrap;html=1;aspect=fixed;" vertex="1" parent="1">
          <mxGeometry x="373" y="110" width="80" height="80" as="geometry"/>
        </mxCell>
        <mxCell id="aOlIhon-sFU2XGYJ-QFs-3" value="History UI" style="whiteSpace=wrap;html=1;aspect=fixed;" vertex="1" parent="1">
          <mxGeometry x="628" y="110" width="80" height="80" as="geometry"/>
        </mxCell>
        <mxCell id="aOlIhon-sFU2XGYJ-QFs-4" value="REST API Gateway" style="whiteSpace=wrap;html=1;aspect=fixed;" vertex="1" parent="1">
          <mxGeometry x="230" y="240" width="80" height="80" as="geometry"/>
        </mxCell>
        <mxCell id="aOlIhon-sFU2XGYJ-QFs-5" value="GraphQL API Gateway" style="whiteSpace=wrap;html=1;aspect=fixed;" vertex="1" parent="1">
          <mxGeometry x="625" y="237" width="83" height="83" as="geometry"/>
        </mxCell>
        <mxCell id="aOlIhon-sFU2XGYJ-QFs-6" value="Job Service" style="whiteSpace=wrap;html=1;aspect=fixed;" vertex="1" parent="1">
          <mxGeometry x="148" y="499" width="80" height="80" as="geometry"/>
        </mxCell>
        <mxCell id="aOlIhon-sFU2XGYJ-QFs-7" value="User Service" style="whiteSpace=wrap;html=1;aspect=fixed;" vertex="1" parent="1">
          <mxGeometry x="258" y="499" width="80" height="80" as="geometry"/>
        </mxCell>
        <mxCell id="aOlIhon-sFU2XGYJ-QFs-8" value="Chat Service" style="whiteSpace=wrap;html=1;aspect=fixed;" vertex="1" parent="1">
          <mxGeometry x="368" y="499" width="80" height="80" as="geometry"/>
        </mxCell>
        <mxCell id="aOlIhon-sFU2XGYJ-QFs-9" value="Notification Service" style="whiteSpace=wrap;html=1;aspect=fixed;" vertex="1" parent="1">
          <mxGeometry x="486" y="499" width="80" height="80" as="geometry"/>
        </mxCell>
        <mxCell id="aOlIhon-sFU2XGYJ-QFs-11" value="History&amp;nbsp;&lt;br&gt;Service" style="whiteSpace=wrap;html=1;aspect=fixed;" vertex="1" parent="1">
          <mxGeometry x="598" y="499" width="80" height="80" as="geometry"/>
        </mxCell>
        <mxCell id="aOlIhon-sFU2XGYJ-QFs-12" value="" style="shape=datastore;whiteSpace=wrap;html=1;" vertex="1" parent="1">
          <mxGeometry x="158" y="609" width="60" height="60" as="geometry"/>
        </mxCell>
        <mxCell id="aOlIhon-sFU2XGYJ-QFs-13" value="" style="endArrow=classic;startArrow=classic;html=1;" edge="1" parent="1">
          <mxGeometry width="50" height="50" relative="1" as="geometry">
            <mxPoint x="120" y="130" as="sourcePoint"/>
            <mxPoint x="120" y="60" as="targetPoint"/>
          </mxGeometry>
        </mxCell>
        <mxCell id="aOlIhon-sFU2XGYJ-QFs-19" value="" style="endArrow=classic;startArrow=classic;html=1;exitX=0.5;exitY=0;exitDx=0;exitDy=0;" edge="1" parent="1" source="aOlIhon-sFU2XGYJ-QFs-2">
          <mxGeometry width="50" height="50" relative="1" as="geometry">
            <mxPoint x="413" y="89" as="sourcePoint"/>
            <mxPoint x="413" y="59" as="targetPoint"/>
          </mxGeometry>
        </mxCell>
        <mxCell id="aOlIhon-sFU2XGYJ-QFs-27" value="" style="endArrow=classic;startArrow=classic;html=1;exitX=0.5;exitY=0;exitDx=0;exitDy=0;" edge="1" parent="1" source="aOlIhon-sFU2XGYJ-QFs-3">
          <mxGeometry width="50" height="50" relative="1" as="geometry">
            <mxPoint x="669.5" y="89" as="sourcePoint"/>
            <mxPoint x="670" y="59" as="targetPoint"/>
          </mxGeometry>
        </mxCell>
        <mxCell id="aOlIhon-sFU2XGYJ-QFs-28" value="" style="endArrow=classic;startArrow=classic;html=1;entryX=0.5;entryY=1;entryDx=0;entryDy=0;exitX=0.5;exitY=0;exitDx=0;exitDy=0;" edge="1" parent="1" source="aOlIhon-sFU2XGYJ-QFs-4" target="aOlIhon-sFU2XGYJ-QFs-1">
          <mxGeometry width="50" height="50" relative="1" as="geometry">
            <mxPoint x="168" y="301" as="sourcePoint"/>
            <mxPoint x="218" y="251" as="targetPoint"/>
          </mxGeometry>
        </mxCell>
        <mxCell id="aOlIhon-sFU2XGYJ-QFs-29" value="" style="endArrow=classic;startArrow=classic;html=1;entryX=0.5;entryY=1;entryDx=0;entryDy=0;exitX=0.5;exitY=0;exitDx=0;exitDy=0;" edge="1" parent="1" source="aOlIhon-sFU2XGYJ-QFs-4" target="aOlIhon-sFU2XGYJ-QFs-2">
          <mxGeometry width="50" height="50" relative="1" as="geometry">
            <mxPoint x="358" y="271" as="sourcePoint"/>
            <mxPoint x="408" y="221" as="targetPoint"/>
          </mxGeometry>
        </mxCell>
        <mxCell id="aOlIhon-sFU2XGYJ-QFs-30" value="" style="endArrow=classic;startArrow=classic;html=1;entryX=0.5;entryY=1;entryDx=0;entryDy=0;exitX=0.5;exitY=0;exitDx=0;exitDy=0;" edge="1" parent="1" source="aOlIhon-sFU2XGYJ-QFs-5" target="aOlIhon-sFU2XGYJ-QFs-3">
          <mxGeometry width="50" height="50" relative="1" as="geometry">
            <mxPoint x="490" y="279" as="sourcePoint"/>
            <mxPoint x="658" y="231" as="targetPoint"/>
          </mxGeometry>
        </mxCell>
        <mxCell id="aOlIhon-sFU2XGYJ-QFs-35" value="" style="endArrow=classic;startArrow=classic;html=1;entryX=0.5;entryY=1;entryDx=0;entryDy=0;exitX=0.5;exitY=0;exitDx=0;exitDy=0;" edge="1" parent="1" source="aOlIhon-sFU2XGYJ-QFs-6" target="aOlIhon-sFU2XGYJ-QFs-4">
          <mxGeometry width="50" height="50" relative="1" as="geometry">
            <mxPoint x="60" y="540" as="sourcePoint"/>
            <mxPoint x="201.1199999999999" y="442.01" as="targetPoint"/>
          </mxGeometry>
        </mxCell>
        <mxCell id="aOlIhon-sFU2XGYJ-QFs-36" value="" style="endArrow=classic;startArrow=classic;html=1;exitX=0.5;exitY=0;exitDx=0;exitDy=0;entryX=0.5;entryY=1;entryDx=0;entryDy=0;" edge="1" parent="1" source="aOlIhon-sFU2XGYJ-QFs-7" target="aOlIhon-sFU2XGYJ-QFs-4">
          <mxGeometry width="50" height="50" relative="1" as="geometry">
            <mxPoint x="220" y="520" as="sourcePoint"/>
            <mxPoint x="280.5" y="440" as="targetPoint"/>
          </mxGeometry>
        </mxCell>
        <mxCell id="aOlIhon-sFU2XGYJ-QFs-37" value="Auth Service" style="whiteSpace=wrap;html=1;aspect=fixed;" vertex="1" parent="1">
          <mxGeometry x="410" y="237" width="80" height="80" as="geometry"/>
        </mxCell>
        <mxCell id="aOlIhon-sFU2XGYJ-QFs-38" value="" style="endArrow=classic;startArrow=classic;html=1;" edge="1" parent="1">
          <mxGeometry width="50" height="50" relative="1" as="geometry">
            <mxPoint x="410" y="280" as="sourcePoint"/>
            <mxPoint x="310" y="280" as="targetPoint"/>
          </mxGeometry>
        </mxCell>
        <mxCell id="aOlIhon-sFU2XGYJ-QFs-41" value="" style="endArrow=classic;startArrow=classic;html=1;exitX=0;exitY=0.5;exitDx=0;exitDy=0;" edge="1" parent="1" source="aOlIhon-sFU2XGYJ-QFs-5">
          <mxGeometry width="50" height="50" relative="1" as="geometry">
            <mxPoint x="590" y="279.5" as="sourcePoint"/>
            <mxPoint x="490" y="279.5" as="targetPoint"/>
          </mxGeometry>
        </mxCell>
        <mxCell id="aOlIhon-sFU2XGYJ-QFs-44" value="" style="endArrow=classic;startArrow=classic;html=1;exitX=0.5;exitY=0;exitDx=0;exitDy=0;entryX=0.5;entryY=1;entryDx=0;entryDy=0;" edge="1" parent="1" source="aOlIhon-sFU2XGYJ-QFs-8" target="aOlIhon-sFU2XGYJ-QFs-4">
          <mxGeometry width="50" height="50" relative="1" as="geometry">
            <mxPoint x="350" y="460" as="sourcePoint"/>
            <mxPoint x="340" y="360" as="targetPoint"/>
          </mxGeometry>
        </mxCell>
        <mxCell id="aOlIhon-sFU2XGYJ-QFs-45" value="" style="endArrow=classic;startArrow=classic;html=1;entryX=0.5;entryY=1;entryDx=0;entryDy=0;exitX=0.5;exitY=0;exitDx=0;exitDy=0;" edge="1" parent="1" source="aOlIhon-sFU2XGYJ-QFs-9" target="aOlIhon-sFU2XGYJ-QFs-4">
          <mxGeometry width="50" height="50" relative="1" as="geometry">
            <mxPoint x="420" y="480" as="sourcePoint"/>
            <mxPoint x="470" y="430" as="targetPoint"/>
          </mxGeometry>
        </mxCell>
        <mxCell id="aOlIhon-sFU2XGYJ-QFs-46" value="" style="endArrow=classic;startArrow=classic;html=1;entryX=0.5;entryY=1;entryDx=0;entryDy=0;exitX=0.5;exitY=0;exitDx=0;exitDy=0;" edge="1" parent="1" source="aOlIhon-sFU2XGYJ-QFs-11" target="aOlIhon-sFU2XGYJ-QFs-5">
          <mxGeometry width="50" height="50" relative="1" as="geometry">
            <mxPoint x="560" y="480" as="sourcePoint"/>
            <mxPoint x="610" y="430" as="targetPoint"/>
          </mxGeometry>
        </mxCell>
        <mxCell id="aOlIhon-sFU2XGYJ-QFs-47" value="" style="shape=datastore;whiteSpace=wrap;html=1;" vertex="1" parent="1">
          <mxGeometry x="268" y="609" width="60" height="60" as="geometry"/>
        </mxCell>
        <mxCell id="aOlIhon-sFU2XGYJ-QFs-48" value="" style="shape=datastore;whiteSpace=wrap;html=1;" vertex="1" parent="1">
          <mxGeometry x="496" y="609" width="60" height="60" as="geometry"/>
        </mxCell>
        <mxCell id="aOlIhon-sFU2XGYJ-QFs-49" value="" style="shape=datastore;whiteSpace=wrap;html=1;" vertex="1" parent="1">
          <mxGeometry x="608" y="609" width="60" height="60" as="geometry"/>
        </mxCell>
        <mxCell id="aOlIhon-sFU2XGYJ-QFs-50" value="" style="endArrow=classic;startArrow=classic;html=1;entryX=0.5;entryY=1;entryDx=0;entryDy=0;exitX=0.5;exitY=0;exitDx=0;exitDy=0;" edge="1" parent="1" source="aOlIhon-sFU2XGYJ-QFs-12" target="aOlIhon-sFU2XGYJ-QFs-6">
          <mxGeometry width="50" height="50" relative="1" as="geometry">
            <mxPoint x="168" y="629" as="sourcePoint"/>
            <mxPoint x="218" y="579" as="targetPoint"/>
          </mxGeometry>
        </mxCell>
        <mxCell id="aOlIhon-sFU2XGYJ-QFs-51" value="" style="endArrow=classic;startArrow=classic;html=1;entryX=0.5;entryY=1;entryDx=0;entryDy=0;exitX=0.5;exitY=0;exitDx=0;exitDy=0;" edge="1" parent="1" source="aOlIhon-sFU2XGYJ-QFs-47" target="aOlIhon-sFU2XGYJ-QFs-7">
          <mxGeometry width="50" height="50" relative="1" as="geometry">
            <mxPoint x="348" y="639" as="sourcePoint"/>
            <mxPoint x="398" y="589" as="targetPoint"/>
          </mxGeometry>
        </mxCell>
        <mxCell id="aOlIhon-sFU2XGYJ-QFs-52" value="" style="endArrow=classic;startArrow=classic;html=1;entryX=0.5;entryY=1;entryDx=0;entryDy=0;exitX=0.5;exitY=0;exitDx=0;exitDy=0;" edge="1" parent="1" source="aOlIhon-sFU2XGYJ-QFs-48" target="aOlIhon-sFU2XGYJ-QFs-9">
          <mxGeometry width="50" height="50" relative="1" as="geometry">
            <mxPoint x="438" y="639" as="sourcePoint"/>
            <mxPoint x="488" y="589" as="targetPoint"/>
          </mxGeometry>
        </mxCell>
        <mxCell id="aOlIhon-sFU2XGYJ-QFs-53" value="" style="endArrow=classic;startArrow=classic;html=1;entryX=0.5;entryY=1;entryDx=0;entryDy=0;exitX=0.5;exitY=0;exitDx=0;exitDy=0;" edge="1" parent="1" source="aOlIhon-sFU2XGYJ-QFs-49" target="aOlIhon-sFU2XGYJ-QFs-11">
          <mxGeometry width="50" height="50" relative="1" as="geometry">
            <mxPoint x="708" y="639" as="sourcePoint"/>
            <mxPoint x="758" y="589" as="targetPoint"/>
          </mxGeometry>
        </mxCell>
      </root>
    </mxGraphModel>
  </diagram>
</mxfile>
